<svg id="visual" viewBox="0 0 900 600" width="900" height="600" xmlns="http://www.w3.org/2000/svg" xmlns:xlink="http://www.w3.org/1999/xlink" version="1.1"><rect x="0" y="0" width="900" height="600" fill="#434c5e"></rect><path d="M0 352L21.5 363C43 374 86 396 128.8 398.5C171.7 401 214.3 384 257.2 386C300 388 343 409 385.8 421.8C428.7 434.7 471.3 439.3 514.2 427.3C557 415.3 600 386.7 642.8 374.2C685.7 361.7 728.3 365.3 771.2 379.3C814 393.3 857 417.7 878.5 429.8L900 442L900 601L878.5 601C857 601 814 601 771.2 601C728.3 601 685.7 601 642.8 601C600 601 557 601 514.2 601C471.3 601 428.7 601 385.8 601C343 601 300 601 257.2 601C214.3 601 171.7 601 128.8 601C86 601 43 601 21.5 601L0 601Z" fill="#88c0d0"></path><path d="M0 423L21.5 432.2C43 441.3 86 459.7 128.8 460.8C171.7 462 214.3 446 257.2 441.2C300 436.3 343 442.7 385.8 447.2C428.7 451.7 471.3 454.3 514.2 454.5C557 454.7 600 452.3 642.8 450.5C685.7 448.7 728.3 447.3 771.2 447.3C814 447.3 857 448.7 878.5 449.3L900 450L900 601L878.5 601C857 601 814 601 771.2 601C728.3 601 685.7 601 642.8 601C600 601 557 601 514.2 601C471.3 601 428.7 601 385.8 601C343 601 300 601 257.2 601C214.3 601 171.7 601 128.8 601C86 601 43 601 21.5 601L0 601Z" fill="#78b1c8"></path><path d="M0 440L21.5 450.3C43 460.7 86 481.3 128.8 486C171.7 490.7 214.3 479.3 257.2 472C300 464.7 343 461.3 385.8 457.5C428.7 453.7 471.3 449.3 514.2 445.8C557 442.3 600 439.7 642.8 440.8C685.7 442 728.3 447 771.2 449.3C814 451.7 857 451.3 878.5 451.2L900 451L900 601L878.5 601C857 601 814 601 771.2 601C728.3 601 685.7 601 642.8 601C600 601 557 601 514.2 601C471.3 601 428.7 601 385.8 601C343 601 300 601 257.2 601C214.3 601 171.7 601 128.8 601C86 601 43 601 21.5 601L0 601Z" fill="#6ca1c0"></path><path d="M0 533L21.5 529C43 525 86 517 128.8 518C171.7 519 214.3 529 257.2 532.8C300 536.7 343 534.3 385.8 532.7C428.7 531 471.3 530 514.2 525.3C557 520.7 600 512.3 642.8 512.8C685.7 513.3 728.3 522.7 771.2 519.7C814 516.7 857 501.3 878.5 493.7L900 486L900 601L878.5 601C857 601 814 601 771.2 601C728.3 601 685.7 601 642.8 601C600 601 557 601 514.2 601C471.3 601 428.7 601 385.8 601C343 601 300 601 257.2 601C214.3 601 171.7 601 128.8 601C86 601 43 601 21.5 601L0 601Z" fill="#6391b7"></path><path d="M0 533L21.5 533.3C43 533.7 86 534.3 128.8 537.7C171.7 541 214.3 547 257.2 548.8C300 550.7 343 548.3 385.8 547.5C428.7 546.7 471.3 547.3 514.2 546.5C557 545.7 600 543.3 642.8 540.3C685.7 537.3 728.3 533.7 771.2 531.8C814 530 857 530 878.5 530L900 530L900 601L878.5 601C857 601 814 601 771.2 601C728.3 601 685.7 601 642.8 601C600 601 557 601 514.2 601C471.3 601 428.7 601 385.8 601C343 601 300 601 257.2 601C214.3 601 171.7 601 128.8 601C86 601 43 601 21.5 601L0 601Z" fill="#5e81ac"></path></svg>